<svg version="1.1" id="Layer_1" xmlns="http://www.w3.org/2000/svg" xmlns:xlink="http://www.w3.org/1999/xlink" x="0px" y="0px"
	 width="100%" viewBox="0 0 2956 684" enable-background="new 0 0 2956 684" xml:space="preserve">
<path fill="#000000" opacity="1.000000" stroke="none" 
	d="
M2022.000000,685.000000 
	C1348.000000,685.000000 674.500000,685.000000 1.000000,685.000000 
	C1.000000,457.000000 1.000000,229.000000 1.000000,1.000000 
	C986.333313,1.000000 1971.666626,1.000000 2957.000000,1.000000 
	C2957.000000,229.000000 2957.000000,457.000000 2957.000000,685.000000 
	C2645.500000,685.000000 2334.000000,685.000000 2022.000000,685.000000 
M1906.000000,227.500000 
	C1906.000000,288.496490 1906.000000,349.492981 1906.000000,410.489471 
	C1906.000000,411.656097 1906.354614,412.971069 1905.939941,413.964722 
	C1903.659180,419.428802 1907.232910,419.025452 1910.714600,419.017273 
	C1927.226074,418.978577 1943.737671,419.000000 1960.624512,419.000000 
	C1960.624512,292.855927 1960.624512,166.525070 1960.624512,39.999962 
	C1930.087280,39.999962 1899.772583,39.856644 1869.460815,40.092758 
	C1861.051636,40.158260 1852.391357,40.285107 1844.303833,42.258755 
	C1829.952759,45.760990 1815.561279,49.734581 1801.903198,55.276859 
	C1784.784546,62.223408 1769.184692,72.204094 1755.101440,84.358772 
	C1752.158081,86.899055 1748.923584,89.101768 1744.600830,92.389626 
	C1735.315552,103.932076 1724.921631,116.852760 1714.595703,129.688843 
	C1710.155884,123.503990 1706.047485,116.623245 1700.807251,110.753036 
	C1693.000610,102.008034 1684.510254,93.857346 1676.082886,85.688858 
	C1671.563354,81.307991 1666.869995,76.978828 1661.705688,73.424835 
	C1655.941284,69.458023 1649.532349,66.434128 1643.442261,62.933178 
	C1631.263672,55.932159 1618.289673,50.637817 1604.869385,46.832050 
	C1596.516724,44.463371 1588.028564,41.967239 1579.165161,41.563347 
	C1574.781494,41.363594 1570.428101,40.091389 1566.057617,40.072132 
	C1535.225952,39.936256 1504.393311,39.997299 1473.561035,40.008343 
	C1472.120239,40.008858 1470.679443,40.131660 1469.565918,40.182552 
	C1469.565918,166.851349 1469.565918,293.167511 1469.565918,419.131165 
	C1488.263794,419.131165 1506.400391,419.131165 1524.000000,419.131165 
	C1524.000000,416.561249 1524.000000,414.644440 1524.000000,412.727631 
	C1524.000000,309.897705 1524.000000,207.067795 1524.000000,104.237885 
	C1524.000000,103.237915 1524.063721,102.233223 1523.989502,101.238792 
	C1523.638306,96.528320 1525.497070,94.626175 1530.480225,94.895058 
	C1537.958252,95.298553 1545.474121,94.987709 1552.973877,95.002655 
	C1567.361328,95.031334 1581.447510,96.956047 1594.974487,102.035461 
	C1596.909302,102.761932 1598.545776,104.282791 1599.495850,104.900253 
	C1601.816040,105.068802 1603.443359,104.775856 1604.659180,105.351746 
	C1608.434326,107.139862 1611.923340,109.563438 1615.756104,111.192665 
	C1629.168335,116.893806 1639.920898,126.276260 1649.688721,136.602936 
	C1657.378662,144.732864 1664.411621,153.428482 1669.655273,163.730484 
	C1674.557739,173.362335 1679.526733,182.789124 1682.032959,193.332016 
	C1682.335571,194.604919 1681.796387,196.077942 1681.639038,197.534805 
	C1684.364258,198.057800 1682.813843,200.997101 1683.581421,202.374527 
	C1687.857666,210.048004 1686.679688,218.421280 1686.737915,226.200272 
	C1687.206421,288.694672 1687.000000,351.194153 1687.000000,413.692078 
	C1687.000000,415.436340 1687.000000,417.180634 1687.000000,419.000000 
	C1702.907104,419.000000 1718.071655,419.000000 1733.236084,419.000000 
	C1742.000854,419.000000 1742.000122,419.000000 1742.000000,410.290619 
	C1741.999878,354.792450 1741.890991,299.293915 1742.090576,243.796463 
	C1742.131226,232.486450 1743.054199,221.155518 1744.072021,209.879501 
	C1745.209351,197.279541 1749.442871,185.438553 1754.578491,173.986099 
	C1759.455566,163.110886 1766.630859,153.713623 1773.747314,144.156708 
	C1782.361328,132.588806 1793.521240,124.328896 1804.885010,116.103638 
	C1806.269897,115.101212 1808.561157,115.350937 1809.983276,115.099716 
	C1810.938354,113.929710 1811.664673,112.512024 1812.822510,111.749977 
	C1814.401367,110.710930 1816.420532,110.359695 1818.058594,109.389053 
	C1833.704834,100.117767 1850.990112,96.401741 1868.788452,95.140732 
	C1879.567261,94.377037 1890.450073,95.199448 1901.274414,94.891670 
	C1905.051147,94.784271 1905.936646,96.426239 1905.992676,99.504295 
	C1906.016968,100.837158 1905.999756,102.170799 1905.999756,103.504082 
	C1905.999878,144.502716 1906.000000,185.501358 1906.000000,227.500000 
M2932.959229,364.343658 
	C2938.235107,354.329285 2942.936035,343.958191 2944.551025,332.761414 
	C2946.091309,322.084869 2947.425293,311.083710 2946.501465,300.428833 
	C2945.559326,289.560425 2941.757568,278.939880 2939.162842,268.020386 
	C2939.220215,267.992096 2940.160645,267.528351 2940.354736,267.432678 
	C2938.776123,266.040100 2937.253418,265.224548 2936.513916,263.953552 
	C2933.204346,258.265137 2930.926758,251.771500 2926.785645,246.813721 
	C2917.617188,235.837601 2907.805420,225.341309 2895.217773,217.984009 
	C2893.881348,217.203018 2892.917969,215.783951 2891.746582,214.626419 
	C2890.734131,214.459671 2889.249023,214.482056 2887.991943,213.957596 
	C2884.319092,212.425491 2880.786133,210.557159 2877.110596,209.032669 
	C2866.190674,204.503296 2854.697754,202.116928 2842.970459,202.089478 
	C2767.977783,201.913849 2692.984619,201.996094 2617.991455,202.005981 
	C2610.593262,202.006958 2603.467041,200.779984 2596.857422,197.339523 
	C2595.670898,196.721863 2594.785889,195.524582 2593.761719,194.594894 
	C2593.728027,194.798508 2593.694336,195.002136 2593.660645,195.205750 
	C2591.849609,194.576035 2590.038818,193.946320 2587.268311,192.983002 
	C2589.196045,192.072006 2590.151611,191.620361 2591.107422,191.168716 
	C2591.260498,190.613144 2591.413574,190.057587 2591.566895,189.502029 
	C2584.200684,192.222504 2580.291504,187.752487 2577.069092,183.328613 
	C2573.248291,178.083023 2569.446289,172.447922 2567.375244,166.387329 
	C2563.833496,156.022552 2562.160889,145.183121 2566.415283,134.591843 
	C2566.955078,135.032379 2567.630127,135.583450 2568.305176,136.134506 
	C2568.599854,133.810318 2567.145020,131.843750 2567.492188,130.276352 
	C2568.098633,127.538368 2569.618164,124.928085 2571.098877,122.471535 
	C2576.729736,113.128868 2583.863037,105.754662 2594.139404,100.908661 
	C2601.202881,97.577797 2608.142822,95.073502 2615.750977,95.065918 
	C2715.241699,94.966797 2814.732422,95.000061 2914.223145,95.000053 
	C2916.011719,95.000053 2917.800049,95.000053 2919.772461,95.000053 
	C2919.772461,76.515091 2919.772461,58.447914 2919.772461,39.999939 
	C2897.767578,39.999939 2875.978516,39.999939 2854.189697,39.999939 
	C2832.358398,39.999939 2810.527100,39.999939 2788.695801,39.999939 
	C2766.697754,39.999939 2744.699951,39.999939 2722.701904,39.999939 
	C2700.870605,39.999939 2679.038818,39.914631 2657.208252,40.024254 
	C2635.956787,40.130962 2614.702881,39.339367 2593.765381,40.898899 
	C2593.111572,41.498821 2592.407715,42.691582 2591.463623,42.929157 
	C2575.526611,46.939430 2560.933838,53.777397 2548.777588,64.853111 
	C2541.031982,71.910393 2533.008789,79.213722 2527.328613,87.863640 
	C2517.740234,102.464737 2511.482178,118.597412 2509.650146,136.469681 
	C2507.917236,153.376068 2509.900391,169.588654 2515.218262,185.450638 
	C2518.661865,195.721222 2523.630859,205.567596 2530.441162,213.907974 
	C2538.127441,223.320923 2546.401855,232.246658 2557.106445,238.861786 
	C2575.439941,250.191132 2594.759277,257.079865 2616.510742,257.044983 
	C2690.003906,256.927063 2763.497070,257.026794 2836.990234,256.977753 
	C2851.942383,256.967773 2865.262207,262.039948 2875.421143,272.457306 
	C2884.716309,281.989136 2890.956787,293.575348 2891.222412,307.984863 
	C2891.479736,321.950623 2887.538330,333.956024 2878.816162,344.486206 
	C2866.755615,359.046631 2850.918213,364.177368 2832.268311,364.130127 
	C2726.278564,363.861511 2620.288086,363.999969 2514.297852,363.999969 
	C2512.552734,363.999969 2510.807373,363.999969 2509.471680,363.999969 
	C2509.471680,382.936035 2509.471680,401.150513 2509.471680,419.371063 
	C2512.305664,419.231964 2514.667969,419.014893 2517.030518,419.014557 
	C2626.187012,418.997833 2735.343750,419.043945 2844.500000,418.885620 
	C2850.727051,418.876587 2857.170166,417.941925 2863.126709,416.152679 
	C2872.488281,413.340546 2881.895752,410.173035 2890.583008,405.772888 
	C2898.489014,401.768555 2905.461426,395.921906 2912.967529,390.803986 
	C2913.031738,390.862793 2913.685303,391.460754 2913.727539,391.499542 
	C2914.852539,389.387695 2915.638184,387.357117 2916.885742,385.667938 
	C2922.023438,378.711517 2927.301025,371.858612 2932.959229,364.343658 
M88.992134,179.370224 
	C80.648529,170.028732 78.173409,158.344498 78.320305,146.636398 
	C78.453552,136.016800 82.286041,125.958321 88.896530,117.027618 
	C99.386353,102.855965 113.353500,95.170700 130.657135,95.125626 
	C229.813675,94.867355 328.971252,95.000046 428.128448,95.000046 
	C430.046570,95.000046 431.964661,95.000046 433.827118,95.000046 
	C433.827118,76.011513 433.827118,57.710857 433.827118,39.711018 
	C431.574554,39.812141 429.482880,39.987919 427.391205,39.988197 
	C326.900787,40.001656 226.410324,40.044353 125.920006,39.940285 
	C114.173004,39.928123 102.773643,42.543392 92.295792,46.761375 
	C78.223541,52.426315 65.171761,60.594173 54.517567,71.914658 
	C53.219196,73.294220 51.270809,74.062027 49.623669,75.113358 
	C48.484180,77.513855 46.451454,79.336914 45.187103,81.590973 
	C40.647846,89.683441 35.975864,97.739204 32.070663,106.141891 
	C23.392204,124.815018 21.163239,144.661072 24.218916,164.799103 
	C26.389118,179.101517 30.966951,192.903595 39.055622,205.193527 
	C42.784115,210.858597 46.049267,217.102905 50.828888,221.740128 
	C58.781780,229.456055 67.014702,236.996552 76.900429,242.486954 
	C92.275452,251.026047 108.538330,256.829254 126.144379,256.889893 
	C201.302979,257.148682 276.463013,257.000000 351.622498,257.000031 
	C352.582123,257.000031 353.541779,257.000031 354.693146,257.000031 
	C353.961243,257.882660 353.419098,258.536407 352.876953,259.190155 
	C355.004791,259.794464 356.743958,259.323822 358.512024,259.023682 
	C360.532104,258.680725 362.836548,257.758820 364.563751,258.370178 
	C369.604889,260.154572 374.530701,262.360901 379.299744,264.797180 
	C388.090576,269.287964 393.827271,276.613434 398.770325,285.082489 
	C409.688843,303.789551 407.090912,321.840363 396.824951,339.435608 
	C393.081085,345.852386 387.613922,350.949341 381.133118,355.273682 
	C372.568665,360.988373 363.159546,363.781647 353.500214,363.808624 
	C245.178070,364.111420 136.854767,364.000000 28.531771,364.000000 
	C26.764198,364.000000 24.996624,364.000000 23.294884,364.000000 
	C23.294884,382.626587 23.294884,400.695984 23.294884,419.000000 
	C25.398851,419.000000 27.209774,419.000000 29.020697,419.000000 
	C134.510635,419.000000 240.000580,419.019653 345.490479,418.957092 
	C352.740662,418.952789 360.005157,418.523712 367.237427,417.962738 
	C383.488739,416.702179 398.089142,410.486603 411.556641,401.786957 
	C425.359497,392.870728 436.765289,381.382507 445.318817,367.191925 
	C454.644836,351.719696 459.948273,334.938660 460.901642,316.980835 
	C461.774750,300.534485 459.937103,284.181671 452.786194,269.215302 
	C447.617523,258.397736 442.023224,247.235229 434.193481,238.368057 
	C422.908875,225.588196 408.796753,215.527359 392.596405,209.348511 
	C380.319916,204.666229 367.603882,201.887909 354.233246,201.919128 
	C281.407257,202.089188 208.580109,201.848450 135.754608,202.101501 
	C116.414360,202.168686 101.019508,195.058456 88.992134,179.370224 
M1346.000000,115.500603 
	C1346.000000,159.495026 1346.000000,203.489441 1345.999756,247.483871 
	C1345.999756,248.817047 1346.011963,250.150421 1345.993408,251.483353 
	C1345.950439,254.581268 1345.037109,256.104126 1341.272461,256.099274 
	C1243.783691,255.973755 1146.294678,256.003693 1048.805786,255.966217 
	C1047.266479,255.965637 1045.727539,255.458511 1044.344482,255.215225 
	C1044.344482,273.411407 1044.344482,292.144928 1044.344482,311.000000 
	C1046.346924,311.000000 1048.005371,311.000000 1049.663696,311.000000 
	C1146.486084,311.000000 1243.308350,311.029388 1340.130615,310.906982 
	C1344.627808,310.901276 1346.228394,311.872955 1346.116943,316.682709 
	C1345.788940,330.840179 1346.000000,345.010101 1346.000000,359.175171 
	C1346.000000,379.186798 1346.000000,399.198425 1346.000000,419.349243 
	C1363.941040,419.349243 1382.148438,419.349243 1400.677979,419.349243 
	C1400.677979,292.762360 1400.677979,166.424927 1400.677979,40.661114 
	C1398.108032,39.911903 1395.962769,39.286537 1394.382812,38.825939 
	C1392.094604,39.251999 1390.086304,39.951591 1388.077515,39.953011 
	C1309.753052,40.008324 1231.428467,40.087032 1153.104248,39.925137 
	C1137.787476,39.893478 1122.792847,41.571320 1107.881104,44.947529 
	C1089.905884,49.017357 1073.127563,56.134785 1057.134399,64.981354 
	C1049.886841,68.990356 1043.636719,74.780457 1036.793091,79.560600 
	C1035.383545,80.545151 1033.346924,80.631859 1032.287964,80.935196 
	C1031.272095,82.425591 1030.573730,83.918243 1029.468994,84.993584 
	C1023.396790,90.904716 1016.675720,96.248337 1011.228638,102.677452 
	C1004.650635,110.441322 998.686462,118.820877 993.266785,127.443245 
	C988.053101,135.738098 983.920349,144.708679 979.194214,153.317368 
	C978.386414,154.788696 976.984802,155.934052 975.517395,157.621033 
	C975.580688,157.759186 976.762512,159.111786 976.458069,159.858292 
	C972.131348,170.468582 968.947754,181.382324 966.944153,192.665848 
	C966.500061,195.166351 965.424133,197.551315 964.693481,200.005646 
	C964.307190,201.303497 963.752441,202.645935 963.797424,203.950195 
	C963.840210,205.190918 964.995361,206.435165 964.920410,207.631378 
	C964.386841,216.139008 963.112061,224.633179 963.088501,233.134445 
	C962.921997,293.127167 963.000122,353.120575 963.000122,413.113770 
	C963.000122,414.930664 963.000061,416.747559 963.000061,419.005188 
	C981.806763,419.005188 1000.332458,419.005188 1019.000000,419.005188 
	C1019.000000,416.494598 1019.000000,414.671295 1019.000000,412.847961 
	C1019.000000,367.519775 1019.000000,322.191589 1019.000000,276.863403 
	C1019.000000,259.532043 1019.283936,242.191345 1018.714539,224.878708 
	C1018.621887,222.062912 1021.227112,220.217270 1019.577393,216.426285 
	C1018.017822,212.842194 1020.879700,207.334137 1021.893311,202.181870 
	C1021.899231,202.236694 1021.612976,201.438263 1021.766174,200.735641 
	C1025.581299,183.239777 1032.713013,167.195084 1043.062134,152.593323 
	C1052.270264,139.601440 1063.156372,128.247269 1076.342896,119.234711 
	C1078.098022,118.035149 1080.319580,117.518021 1081.554932,117.004822 
	C1083.380005,115.445694 1084.642944,113.767052 1086.319214,113.034584 
	C1095.413818,109.060776 1104.758423,105.635208 1113.732910,101.416695 
	C1123.864624,96.654182 1134.812988,95.491142 1145.481567,95.254883 
	C1177.462280,94.546669 1209.468750,95.000015 1241.465088,95.000015 
	C1274.627930,95.000023 1307.791138,95.060997 1340.953369,94.919342 
	C1344.896240,94.902496 1346.341309,95.981598 1346.075073,100.007607 
	C1345.756836,104.819344 1346.000000,109.668205 1346.000000,115.500603 
M2022.017944,255.500000 
	C2022.017944,310.173279 2022.017944,364.846558 2022.017944,419.203857 
	C2041.037842,419.203857 2058.891357,419.203857 2075.891846,419.203857 
	C2077.061279,416.818970 2078.360352,415.277466 2078.461182,413.661163 
	C2078.567871,411.950165 2077.061523,410.166168 2077.068359,408.417236 
	C2077.314453,346.166351 2077.697754,283.916046 2077.952881,221.665176 
	C2078.012207,207.151154 2081.790771,193.508011 2087.010498,180.181274 
	C2093.909424,162.567093 2104.428223,147.314560 2117.638428,133.828415 
	C2131.533203,119.643517 2148.323486,110.079460 2166.605225,102.888405 
	C2167.592285,102.500107 2169.024414,103.243225 2170.142090,103.440704 
	C2171.208252,102.439987 2172.323730,100.463951 2173.759766,100.194122 
	C2184.012695,98.267738 2194.321289,95.297432 2204.629639,95.226738 
	C2269.787109,94.779877 2334.948975,95.000069 2400.109375,95.000069 
	C2401.696289,95.000069 2403.283203,95.000069 2405.000000,95.000069 
	C2405.000000,97.475571 2405.000000,99.298248 2405.000000,101.120934 
	C2405.000000,150.449493 2405.000000,199.778046 2404.999756,249.106613 
	C2404.999756,255.998688 2404.999512,255.999771 2398.344238,255.999786 
	C2302.353516,256.000031 2206.362793,255.999954 2110.372070,255.999802 
	C2109.205566,255.999802 2107.933594,256.301788 2106.891357,255.941406 
	C2103.288818,254.695923 2102.936523,256.471527 2102.954834,259.447357 
	C2103.051514,275.111938 2102.994873,290.777374 2103.008789,306.442535 
	C2103.010010,307.882965 2103.133789,309.323273 2103.218018,311.134552 
	C2203.935791,311.134552 2304.334717,311.134552 2404.862793,311.134552 
	C2404.862793,347.254028 2404.862793,382.984009 2404.862793,418.855530 
	C2423.754150,418.855530 2442.061279,418.855530 2460.330322,418.855530 
	C2460.330322,292.657623 2460.330322,166.403946 2460.330322,39.999931 
	C2458.364990,39.999931 2456.539795,39.999935 2454.714355,39.999935 
	C2376.388672,39.999935 2298.062744,39.966297 2219.737061,40.044006 
	C2210.319092,40.053352 2200.812988,39.976688 2191.506348,41.173710 
	C2179.836670,42.674599 2168.145508,44.762432 2156.796875,47.829918 
	C2138.054688,52.895863 2120.784424,61.430225 2104.827393,72.583740 
	C2102.796387,74.003487 2100.181885,74.588722 2097.677490,75.626907 
	C2099.343018,80.115837 2092.935059,80.060097 2091.067383,83.146942 
	C2090.283203,84.443024 2087.575195,84.575310 2085.881836,85.186188 
	C2085.296631,86.488022 2084.950195,88.374924 2083.842529,89.534386 
	C2078.291504,95.345444 2072.226562,100.690971 2066.947266,106.729088 
	C2061.401367,113.071907 2056.006348,119.677505 2051.530273,126.788223 
	C2047.010254,133.968796 2043.588745,141.856857 2039.876099,149.527008 
	C2028.190430,173.669785 2022.880249,199.339142 2022.067139,226.004166 
	C2021.777832,235.494461 2022.018921,245.000916 2022.017944,255.500000 
M740.500000,257.000000 
	C775.929504,257.000000 811.359070,257.000000 847.154053,257.000000 
	C847.154053,311.238800 847.154053,364.984558 847.154053,418.739746 
	C865.591614,418.739746 883.660522,418.739746 901.769165,418.739746 
	C901.769165,292.430115 901.769165,166.380905 901.769165,40.230324 
	C883.468994,40.230324 865.400391,40.230324 846.946167,40.230324 
	C846.946167,94.189079 846.946167,147.919113 846.946167,201.717560 
	C758.588562,201.717560 670.617310,201.717560 582.852783,201.717560 
	C582.852783,220.451355 582.852783,238.999023 582.852783,257.000000 
	C635.375122,257.000000 687.437561,257.000000 740.500000,257.000000 
M557.000000,324.500000 
	C557.000000,229.879425 557.000000,135.258865 557.000000,40.350327 
	C538.754639,40.350327 520.423340,40.350327 502.291718,40.350327 
	C502.291718,166.730728 502.291718,292.760681 502.291718,418.696777 
	C520.649536,418.696777 538.714111,418.696777 557.000000,418.696777 
	C557.000000,387.429382 557.000000,356.464691 557.000000,324.500000 
M1198.051758,586.044434 
	C1199.220337,590.710388 1200.364502,595.382690 1201.562256,600.041199 
	C1204.774536,612.536255 1211.518188,622.806030 1220.958862,631.523499 
	C1232.276978,641.974670 1245.408203,647.912048 1260.882935,647.967468 
	C1291.872681,648.078552 1322.863159,647.995361 1353.853271,648.012451 
	C1355.849243,648.013550 1357.845215,648.185852 1359.769287,648.275146 
	C1359.769287,640.871277 1359.769287,633.589722 1359.769287,626.693848 
	C1358.126465,626.803955 1356.668091,626.986267 1355.209839,626.987122 
	C1325.719238,627.003784 1296.228394,627.050293 1266.738281,626.938232 
	C1262.842896,626.923401 1258.871948,626.422668 1255.070679,625.556519 
	C1239.529175,622.015381 1229.784668,611.985413 1223.959229,597.499268 
	C1218.627197,584.239502 1218.364746,570.617065 1222.175537,557.238220 
	C1227.437866,538.764587 1242.211182,523.817444 1264.223877,523.932190 
	C1297.699585,524.106628 1331.176636,523.978027 1364.653198,523.978027 
	C1386.146362,523.977966 1407.639526,523.977600 1429.132690,523.977356 
	C1430.715088,523.977356 1432.297485,523.977356 1434.253906,523.977356 
	C1434.253906,565.717651 1434.253906,606.783081 1434.253906,647.679932 
	C1441.381348,647.679932 1448.122192,647.679932 1455.226074,647.679932 
	C1455.226074,606.292114 1455.226074,565.223816 1455.226074,523.763672 
	C1480.004272,523.763672 1504.406128,523.763672 1528.686035,523.763672 
	C1528.686035,516.293579 1528.686035,509.222748 1528.686035,501.999664 
	C1527.553711,501.999664 1526.735474,501.999664 1525.917114,501.999664 
	C1437.112183,501.999603 1348.307373,501.987946 1259.502441,502.045746 
	C1256.256470,502.047852 1252.878540,502.273407 1249.786621,503.169525 
	C1227.171387,509.723816 1211.174316,523.422485 1202.864990,545.959595 
	C1198.145142,558.760864 1197.755249,571.838074 1198.051758,586.044434 
M1823.112549,625.665710 
	C1806.557617,621.778625 1796.571533,610.772217 1791.062256,595.365723 
	C1786.595947,582.876160 1786.543213,569.930786 1790.124634,557.302490 
	C1795.413452,538.654297 1811.032959,523.729675 1832.140869,523.911926 
	C1862.293335,524.172363 1892.449707,523.981445 1922.604492,523.983276 
	C1924.357788,523.983398 1926.111206,523.983276 1927.635254,523.983276 
	C1927.635254,516.254761 1927.635254,509.182556 1927.635254,501.999298 
	C1895.308105,501.999298 1863.327759,502.044617 1831.347656,501.983398 
	C1809.892090,501.942322 1792.261353,511.094238 1780.366699,527.928589 
	C1764.986206,549.696289 1761.739014,574.491760 1769.716064,600.377563 
	C1773.078613,611.289307 1778.172852,620.904724 1786.428711,629.114868 
	C1798.471558,641.090820 1812.501587,647.886353 1829.490967,647.961853 
	C1860.311523,648.098755 1891.133179,647.995667 1921.954346,648.012939 
	C1923.864014,648.014038 1925.773682,648.190979 1927.834351,648.293640 
	C1927.869019,647.880310 1927.971191,647.229858 1927.971436,646.579407 
	C1927.980103,620.589661 1927.903076,594.599426 1928.061035,568.610657 
	C1928.085083,564.638000 1926.505737,563.951904 1923.020630,563.961975 
	C1889.200928,564.059753 1855.380737,564.018372 1821.560791,564.029236 
	C1820.453735,564.029602 1819.346558,564.163574 1817.834229,564.261597 
	C1817.834229,571.886658 1817.834229,579.200989 1817.834229,586.289062 
	C1847.269775,586.289062 1876.463501,586.289062 1905.773926,586.289062 
	C1905.773926,599.854980 1905.773926,613.256287 1905.773926,627.490295 
	C1878.338867,626.982727 1851.139771,626.479553 1823.112549,625.665710 
M923.500000,523.978394 
	C930.498779,523.978577 937.497559,524.001221 944.496277,523.973694 
	C955.417175,523.930786 963.968811,528.511719 969.940430,537.531006 
	C976.592407,547.577881 976.971802,558.469421 971.439880,568.839722 
	C966.020813,578.998718 957.245789,585.024902 945.130554,585.015137 
	C918.469055,584.993652 891.807617,585.016418 865.146118,585.021118 
	C863.536804,585.021362 861.927490,585.021118 860.289429,585.021118 
	C860.289429,592.586365 860.289429,599.653931 860.289429,607.000732 
	C877.857727,607.000732 895.175476,607.442993 912.453918,606.810791 
	C920.864868,606.503052 927.636475,607.982239 932.688599,615.054260 
	C933.957947,616.831055 935.744263,618.252319 937.359863,619.765686 
	C947.037598,628.830750 956.732361,637.877686 966.432373,646.919006 
	C966.981628,647.431030 967.624329,648.231323 968.229431,648.236755 
	C977.632263,648.320740 987.036133,648.295532 997.618103,648.295532 
	C982.554993,633.770752 968.432861,620.153320 954.214661,606.443237 
	C956.706848,605.599426 959.090393,604.862000 961.424133,603.991089 
	C978.158936,597.745728 989.580322,586.121704 994.804993,569.127502 
	C999.364868,554.295837 997.392334,539.844482 988.925293,526.694946 
	C978.299744,510.193115 963.129944,501.892700 943.319397,501.962189 
	C906.493591,502.091400 869.667114,501.999237 832.840881,501.999237 
	C831.029602,501.999237 829.218384,501.999237 828.020020,501.999237 
	C828.020020,550.839600 828.020020,599.341736 828.020020,648.232178 
	C835.661926,648.232178 842.694702,648.232178 850.150940,648.232178 
	C850.150940,606.995789 850.150940,565.591980 850.150940,524.266785 
	C850.886719,524.120789 851.200378,524.004272 851.514160,524.004089 
	C875.176086,523.989624 898.838074,523.984375 923.500000,523.978394 
M1011.999573,644.348450 
	C1012.185730,645.952576 1011.123779,648.135254 1014.358337,648.047119 
	C1020.464294,647.880676 1026.578003,647.999023 1033.000366,647.999023 
	C1033.000366,646.069824 1033.000244,644.605896 1033.000244,643.141907 
	C1033.000244,620.652100 1032.886475,598.161316 1033.093750,575.673401 
	C1033.136597,571.022888 1033.854614,566.233154 1035.147949,561.764160 
	C1041.687744,539.166077 1062.383423,522.853088 1087.223999,523.800293 
	C1109.348511,524.643921 1131.530396,523.977234 1153.687012,523.977112 
	C1155.431519,523.977112 1157.176025,523.977173 1158.655640,523.977173 
	C1158.655640,544.764771 1158.655640,564.832764 1158.655640,585.276611 
	C1119.917847,585.276611 1081.523438,585.276611 1043.330078,585.276611 
	C1043.330078,592.736145 1043.330078,599.809937 1043.330078,607.000427 
	C1045.481445,607.000427 1047.304199,607.000427 1049.126953,607.000427 
	C1083.777832,607.000427 1118.429565,607.106934 1153.078979,606.881897 
	C1158.090210,606.849365 1159.292725,608.459106 1159.095459,613.131653 
	C1158.751465,621.280090 1158.999756,629.453552 1158.999756,637.616516 
	C1158.999756,641.038574 1158.999634,644.460571 1158.999634,647.654175 
	C1166.730591,647.654175 1173.801270,647.654175 1180.642578,647.654175 
	C1180.642578,598.920166 1180.642578,550.532837 1180.642578,502.000458 
	C1145.833984,502.000458 1111.357910,501.820557 1076.887085,502.172089 
	C1070.929565,502.232819 1064.617310,503.662231 1059.129028,506.005432 
	C1047.941895,510.781708 1037.736450,517.348206 1029.700317,526.791382 
	C1019.104919,539.241943 1012.254333,553.339417 1012.070007,569.911682 
	C1011.797607,594.397522 1011.999573,618.888611 1011.999573,644.348450 
M355.500061,501.999603 
	C350.670929,501.999603 345.841614,501.974762 341.012665,502.004364 
	C328.039825,502.083954 315.916443,505.566345 305.634430,513.317078 
	C299.116028,518.230713 292.467072,523.986450 288.330566,530.844604 
	C278.036407,547.912048 274.197266,566.574280 276.799744,586.835022 
	C279.877472,610.796082 291.883118,628.854736 311.575104,641.374329 
	C318.511383,645.784302 328.100494,647.304016 336.596283,647.716675 
	C355.368958,648.628723 374.220428,647.758972 393.032318,648.069214 
	C411.311707,648.370667 426.324768,641.511902 439.043335,628.771790 
	C451.574921,616.218933 457.271271,600.515381 458.843445,583.416138 
	C460.450775,565.934326 457.666840,548.982300 448.229553,533.711792 
	C436.003998,513.929565 418.499878,502.712830 394.964844,502.062775 
	C382.152405,501.708893 369.322205,501.999603 355.500061,501.999603 
M2278.500000,501.999573 
	C2267.667236,501.999573 2256.829346,502.199799 2246.002930,501.940765 
	C2236.060791,501.702850 2226.772461,503.681824 2217.631592,507.649414 
	C2201.646240,514.587830 2191.116699,526.760986 2184.134766,542.091858 
	C2177.240723,557.230225 2176.382812,573.359131 2179.038086,589.619568 
	C2182.916748,613.371277 2194.327637,631.845459 2216.816895,642.381714 
	C2224.255615,645.866699 2231.934814,648.023438 2240.195068,648.010010 
	C2259.027588,647.979309 2277.859863,647.965698 2296.692383,648.010620 
	C2313.764648,648.051392 2328.144043,641.597168 2339.904541,629.534302 
	C2358.976807,609.971558 2363.712646,585.740784 2359.648682,559.926636 
	C2356.889648,542.400757 2348.888916,526.677307 2334.051025,515.707764 
	C2328.914795,511.910828 2323.182861,508.740295 2317.354492,506.096313 
	C2305.271240,500.614807 2292.265137,502.078125 2278.500000,501.999573 
M2642.557617,648.000122 
	C2647.317627,648.000122 2652.077393,648.000122 2656.692383,648.000122 
	C2656.692383,598.980103 2656.692383,550.578064 2656.692383,502.311127 
	C2649.306641,502.311127 2642.232178,502.311127 2634.581055,502.311127 
	C2634.581055,527.741211 2634.581055,552.862549 2634.581055,578.508240 
	C2633.546387,577.772278 2633.038086,577.577820 2632.787109,577.208435 
	C2619.256348,557.306030 2601.729004,541.509460 2581.745361,528.443726 
	C2566.339600,518.371216 2549.953125,510.206329 2531.994629,505.468445 
	C2519.841309,502.262115 2507.595947,501.241302 2495.164551,502.313141 
	C2495.164551,551.296448 2495.164551,599.926941 2495.164551,648.310547 
	C2502.459717,648.310547 2509.593506,648.310547 2517.090576,648.310547 
	C2517.090576,607.318176 2517.090576,566.207092 2517.090576,525.018982 
	C2518.613037,525.018982 2519.844971,524.760254 2520.922852,525.057861 
	C2536.794434,529.440308 2552.056641,535.241943 2565.912598,544.358704 
	C2581.934082,554.900330 2596.800537,566.527527 2608.908691,581.790771 
	C2617.248535,592.303772 2624.165771,603.488586 2628.759033,615.803162 
	C2632.546143,625.956238 2634.080566,636.949646 2636.715332,648.000122 
	C2637.608398,648.000122 2639.592041,648.000122 2642.557617,648.000122 
M476.022644,591.500000 
	C476.022644,610.259888 476.022644,629.019775 476.022644,647.695801 
	C483.686127,647.695801 490.756622,647.695801 498.148132,647.695801 
	C498.148132,606.621216 498.148132,565.850281 498.148132,524.378540 
	C504.544983,526.019531 510.677155,526.978027 516.344360,529.149780 
	C545.312012,540.250793 570.168396,557.284058 589.917603,581.413025 
	C604.996033,599.835266 615.419189,620.191223 616.134399,644.613647 
	C616.168152,645.763916 617.755676,647.800476 618.690308,647.842224 
	C625.095215,648.128784 631.518982,647.992676 638.291077,647.992676 
	C638.291077,598.940430 638.291077,550.585083 638.291077,502.328583 
	C631.264404,502.328583 624.193481,502.328583 616.708130,502.328583 
	C616.708130,528.618591 616.708130,554.580933 616.708130,580.329163 
	C613.772766,576.562927 610.905884,572.861084 608.014221,569.178711 
	C598.080811,556.528992 586.461243,545.689453 573.627625,535.979431 
	C558.051697,524.194580 541.246338,514.835205 522.831909,508.416840 
	C507.751556,503.160583 492.278625,500.588318 476.022644,502.400696 
	C476.022644,531.890564 476.022644,561.195312 476.022644,591.500000 
M1633.631104,508.957520 
	C1618.409058,502.871582 1602.636353,500.831146 1586.904663,502.259338 
	C1586.904663,550.900085 1586.904663,599.282227 1586.904663,647.772339 
	C1594.192139,647.772339 1600.928833,647.772339 1608.000366,647.772339 
	C1608.000366,645.920105 1608.000366,644.291260 1608.000366,642.662354 
	C1608.000366,605.177917 1608.060913,567.693298 1607.923584,530.209412 
	C1607.906494,525.530579 1609.361328,524.848328 1613.694092,525.778259 
	C1635.151733,530.383545 1653.695679,540.896973 1671.119141,553.670715 
	C1682.511963,562.023071 1692.715454,571.651611 1701.431763,582.861023 
	C1709.600098,593.365967 1717.081543,604.309631 1720.899780,617.128418 
	C1723.966187,627.422913 1725.903564,638.053772 1728.242676,648.108765 
	C1734.580078,648.108765 1741.635864,648.108765 1748.731689,648.108765 
	C1748.731689,599.103882 1748.731689,550.715881 1748.731689,502.246674 
	C1741.101685,502.246674 1733.718872,502.246674 1726.669678,502.246674 
	C1726.669678,528.171448 1726.669678,553.850952 1726.669678,580.093811 
	C1702.817017,546.927185 1672.546387,522.845093 1633.631104,508.957520 
M2143.500000,648.000366 
	C2152.931885,648.000366 2162.363770,648.000366 2171.708252,648.000366 
	C2171.708252,640.680237 2171.708252,633.939636 2171.708252,626.999634 
	C2166.105713,626.999634 2160.792725,627.050598 2155.480713,626.991089 
	C2127.395752,626.676331 2099.297119,626.742798 2071.231445,625.824524 
	C2057.653809,625.380371 2047.245850,617.583923 2040.246338,606.368286 
	C2026.821533,584.857056 2029.252197,548.299500 2050.828613,532.878479 
	C2058.242188,527.579773 2065.674561,524.122192 2074.625977,524.028320 
	C2086.957275,523.899109 2099.290527,523.980774 2111.623047,523.978821 
	C2131.605957,523.975647 2151.588623,523.978027 2172.137695,523.978027 
	C2172.137695,516.291626 2172.137695,508.869781 2172.137695,501.673950 
	C2169.764893,501.798431 2167.848145,501.985413 2165.931396,501.986603 
	C2136.266602,502.005127 2106.602051,501.969666 2076.937256,502.009918 
	C2056.695068,502.037384 2040.028687,509.578613 2027.037598,525.366211 
	C2015.746582,539.087891 2010.607422,554.966064 2010.143555,572.373413 
	C2009.948608,579.685669 2011.082642,587.074768 2012.070435,594.366943 
	C2013.365601,603.927551 2017.501709,612.969666 2022.748413,620.442017 
	C2029.386597,629.895874 2038.240601,638.233582 2049.500732,642.720337 
	C2057.157959,645.771545 2064.970703,648.187683 2073.505615,648.090210 
	C2096.501221,647.827393 2119.501465,648.000366 2143.500000,648.000366 
M2701.568604,514.960205 
	C2690.766846,523.553101 2683.486084,534.537598 2678.834961,547.495239 
	C2673.327637,562.838928 2672.420654,578.564575 2676.312500,594.127258 
	C2678.690186,603.636230 2682.202881,613.440002 2687.662354,621.433716 
	C2692.905762,629.110901 2700.012939,636.127075 2708.913330,640.422302 
	C2717.041260,644.344727 2725.293945,647.960144 2734.531250,647.977356 
	C2766.680908,648.037109 2798.830566,648.000427 2830.980225,648.000427 
	C2832.579346,648.000427 2834.178223,648.000427 2835.719238,648.000427 
	C2835.719238,640.698242 2835.719238,633.960632 2835.719238,626.999573 
	C2833.631104,626.999573 2831.822021,627.015930 2830.013184,626.997070 
	C2798.444092,626.667664 2766.872559,626.458374 2735.307129,625.914062 
	C2727.352051,625.776917 2720.206787,622.175720 2714.128662,617.342529 
	C2702.139648,607.808716 2697.011475,594.247314 2696.252686,579.668701 
	C2695.349609,562.320007 2699.278320,546.445862 2713.723145,534.124512 
	C2721.400391,527.575867 2729.497314,524.191650 2738.968506,524.102417 
	C2769.282959,523.816528 2799.602051,523.984863 2829.919189,523.978027 
	C2831.892578,523.977539 2833.865723,523.977966 2836.146973,523.977966 
	C2836.146973,516.167847 2836.146973,508.749908 2836.146973,501.999512 
	C2833.553467,501.999512 2831.601074,501.999512 2829.648438,501.999512 
	C2798.498291,501.999512 2767.347900,501.989624 2736.197754,502.025085 
	C2734.411865,502.027130 2732.623779,502.376099 2730.841553,502.602966 
	C2720.189697,503.958832 2710.817627,508.430176 2701.568604,514.960205 
M261.454712,523.977295 
	C264.226013,523.977295 266.997314,523.977295 270.166504,523.977295 
	C270.166504,516.378906 270.166504,509.336700 270.166504,501.999573 
	C268.851959,501.999573 267.204895,501.999573 265.557800,501.999573 
	C234.906052,501.999573 204.254211,502.039917 173.602615,501.973328 
	C165.151825,501.954956 157.118301,503.585815 149.400864,506.995178 
	C135.580566,513.100586 124.954994,522.774597 118.058670,536.148254 
	C106.591095,558.386658 105.552872,581.435486 114.007050,604.900696 
	C117.630524,614.957886 122.670723,624.245789 130.914352,631.340027 
	C143.497162,642.168457 157.753525,648.308960 174.783997,648.102173 
	C204.764984,647.738159 234.753571,648.000366 264.738983,648.000366 
	C266.360992,648.000366 267.983002,648.000366 269.799377,648.000366 
	C269.799377,640.519226 269.799377,633.429016 269.799377,626.376648 
	C268.859863,626.608948 268.081238,626.975281 267.306061,626.968140 
	C235.401932,626.675720 203.491364,626.642944 171.597168,625.904724 
	C155.574921,625.533813 144.310181,616.880737 136.947128,602.828003 
	C128.802475,587.283569 128.654282,571.278687 133.603806,554.814819 
	C138.730637,537.761169 156.758499,523.318115 176.009323,523.797485 
	C204.144852,524.498047 232.310776,523.977478 261.454712,523.977295 
M697.500000,501.999481 
	C681.404419,501.999481 665.308838,501.999481 649.305786,501.999481 
	C649.305786,509.646545 649.305786,516.717224 649.305786,524.185242 
	C673.679321,524.185242 697.748474,524.185242 722.202393,524.185242 
	C722.202393,565.663330 722.202393,606.734192 722.202393,647.700317 
	C729.670898,647.700317 736.744751,647.700317 744.196045,647.700317 
	C744.196045,606.328857 744.196045,565.256409 744.196045,523.781372 
	C768.986328,523.781372 793.390137,523.781372 817.834717,523.781372 
	C817.834717,516.078979 817.834717,508.783508 817.834717,501.999481 
	C777.961365,501.999481 738.230713,501.999481 697.500000,501.999481 
M2469.980957,505.666626 
	C2469.811523,504.040771 2470.801025,501.885193 2467.602783,501.955658 
	C2460.847412,502.104462 2454.086914,502.000916 2447.896484,502.000916 
	C2447.896484,550.879333 2447.896484,599.271729 2447.896484,647.752319 
	C2455.523438,647.752319 2462.591309,647.752319 2469.980225,647.752319 
	C2469.980225,600.547913 2469.980225,553.591309 2469.980957,505.666626 
M1539.020630,533.500000 
	C1539.020630,571.584534 1539.020630,609.669067 1539.020630,647.714111 
	C1546.650391,647.714111 1553.719604,647.714111 1560.729736,647.714111 
	C1560.729736,599.034363 1560.729736,550.641968 1560.729736,502.290955 
	C1553.387085,502.290955 1546.319458,502.290955 1539.020630,502.290955 
	C1539.020630,512.554138 1539.020630,522.527100 1539.020630,533.500000 
z"/>
<path fill="#FFFFFF" opacity="1.000000" stroke="none" 
	d="
M1906.000000,227.000000 
	C1906.000000,185.501358 1905.999878,144.502716 1905.999756,103.504082 
	C1905.999756,102.170799 1906.016968,100.837158 1905.992676,99.504295 
	C1905.936646,96.426239 1905.051147,94.784271 1901.274414,94.891670 
	C1890.450073,95.199448 1879.567261,94.377037 1868.788452,95.140732 
	C1850.990112,96.401741 1833.704834,100.117767 1818.058594,109.389053 
	C1816.420532,110.359695 1814.401367,110.710930 1812.822510,111.749977 
	C1811.664673,112.512024 1810.938354,113.929710 1809.983276,115.099716 
	C1808.561157,115.350937 1806.269897,115.101212 1804.885010,116.103638 
	C1793.521240,124.328896 1782.361328,132.588806 1773.747314,144.156708 
	C1766.630859,153.713623 1759.455566,163.110886 1754.578491,173.986099 
	C1749.442871,185.438553 1745.209351,197.279541 1744.072021,209.879501 
	C1743.054199,221.155518 1742.131226,232.486450 1742.090576,243.796463 
	C1741.890991,299.293915 1741.999878,354.792450 1742.000000,410.290619 
	C1742.000122,419.000000 1742.000854,419.000000 1733.236084,419.000000 
	C1718.071655,419.000000 1702.907104,419.000000 1687.000000,419.000000 
	C1687.000000,417.180634 1687.000000,415.436340 1687.000000,413.692078 
	C1687.000000,351.194153 1687.206421,288.694672 1686.737915,226.200272 
	C1686.679688,218.421280 1687.857666,210.048004 1683.581421,202.374527 
	C1682.813843,200.997101 1684.364258,198.057800 1681.639038,197.534805 
	C1681.796387,196.077942 1682.335571,194.604919 1682.032959,193.332016 
	C1679.526733,182.789124 1674.557739,173.362335 1669.655273,163.730484 
	C1664.411621,153.428482 1657.378662,144.732864 1649.688721,136.602936 
	C1639.920898,126.276260 1629.168335,116.893806 1615.756104,111.192665 
	C1611.923340,109.563438 1608.434326,107.139862 1604.659180,105.351746 
	C1603.443359,104.775856 1601.816040,105.068802 1599.495850,104.900253 
	C1598.545776,104.282791 1596.909302,102.761932 1594.974487,102.035461 
	C1581.447510,96.956047 1567.361328,95.031334 1552.973877,95.002655 
	C1545.474121,94.987709 1537.958252,95.298553 1530.480225,94.895058 
	C1525.497070,94.626175 1523.638306,96.528320 1523.989502,101.238792 
	C1524.063721,102.233223 1524.000000,103.237915 1524.000000,104.237885 
	C1524.000000,207.067795 1524.000000,309.897705 1524.000000,412.727631 
	C1524.000000,414.644440 1524.000000,416.561249 1524.000000,419.131165 
	C1506.400391,419.131165 1488.263794,419.131165 1469.565918,419.131165 
	C1469.565918,293.167511 1469.565918,166.851349 1469.565918,40.182552 
	C1470.679443,40.131660 1472.120239,40.008858 1473.561035,40.008343 
	C1504.393311,39.997299 1535.225952,39.936256 1566.057617,40.072132 
	C1570.428101,40.091389 1574.781494,41.363594 1579.165161,41.563347 
	C1588.028564,41.967239 1596.516724,44.463371 1604.869385,46.832050 
	C1618.289673,50.637817 1631.263672,55.932159 1643.442261,62.933178 
	C1649.532349,66.434128 1655.941284,69.458023 1661.705688,73.424835 
	C1666.869995,76.978828 1671.563354,81.307991 1676.082886,85.688858 
	C1684.510254,93.857346 1693.000610,102.008034 1700.807251,110.753036 
	C1706.047485,116.623245 1710.155884,123.503990 1714.595703,129.688843 
	C1724.921631,116.852760 1735.315552,103.932076 1744.600830,92.389626 
	C1748.923584,89.101768 1752.158081,86.899055 1755.101440,84.358772 
	C1769.184692,72.204094 1784.784546,62.223408 1801.903198,55.276859 
	C1815.561279,49.734581 1829.952759,45.760990 1844.303833,42.258755 
	C1852.391357,40.285107 1861.051636,40.158260 1869.460815,40.092758 
	C1899.772583,39.856644 1930.087280,39.999962 1960.624512,39.999962 
	C1960.624512,166.525070 1960.624512,292.855927 1960.624512,419.000000 
	C1943.737671,419.000000 1927.226074,418.978577 1910.714600,419.017273 
	C1907.232910,419.025452 1903.659180,419.428802 1905.939941,413.964722 
	C1906.354614,412.971069 1906.000000,411.656097 1906.000000,410.489471 
	C1906.000000,349.492981 1906.000000,288.496490 1906.000000,227.000000 
z"/>
<path fill="#FFFFFF" opacity="1.000000" stroke="none" 
	d="
M2932.743164,364.655701 
	C2927.301025,371.858612 2922.023438,378.711517 2916.885742,385.667938 
	C2915.638184,387.357117 2914.852539,389.387695 2913.727539,391.499542 
	C2913.685303,391.460754 2913.031738,390.862793 2912.967529,390.803986 
	C2905.461426,395.921906 2898.489014,401.768555 2890.583008,405.772888 
	C2881.895752,410.173035 2872.488281,413.340546 2863.126709,416.152679 
	C2857.170166,417.941925 2850.727051,418.876587 2844.500000,418.885620 
	C2735.343750,419.043945 2626.187012,418.997833 2517.030518,419.014557 
	C2514.667969,419.014893 2512.305664,419.231964 2509.471680,419.371063 
	C2509.471680,401.150513 2509.471680,382.936035 2509.471680,363.999969 
	C2510.807373,363.999969 2512.552734,363.999969 2514.297852,363.999969 
	C2620.288086,363.999969 2726.278564,363.861511 2832.268311,364.130127 
	C2850.918213,364.177368 2866.755615,359.046631 2878.816162,344.486206 
	C2887.538330,333.956024 2891.479736,321.950623 2891.222412,307.984863 
	C2890.956787,293.575348 2884.716309,281.989136 2875.421143,272.457306 
	C2865.262207,262.039948 2851.942383,256.967773 2836.990234,256.977753 
	C2763.497070,257.026794 2690.003906,256.927063 2616.510742,257.044983 
	C2594.759277,257.079865 2575.439941,250.191132 2557.106445,238.861786 
	C2546.401855,232.246658 2538.127441,223.320923 2530.441162,213.907974 
	C2523.630859,205.567596 2518.661865,195.721222 2515.218262,185.450638 
	C2509.900391,169.588654 2507.917236,153.376068 2509.650146,136.469681 
	C2511.482178,118.597412 2517.740234,102.464737 2527.328613,87.863640 
	C2533.008789,79.213722 2541.031982,71.910393 2548.777588,64.853111 
	C2560.933838,53.777397 2575.526611,46.939430 2591.463623,42.929157 
	C2592.407715,42.691582 2593.111572,41.498821 2593.765381,40.898899 
	C2614.702881,39.339367 2635.956787,40.130962 2657.208252,40.024254 
	C2679.038818,39.914631 2700.870605,39.999939 2722.701904,39.999939 
	C2744.699951,39.999939 2766.697754,39.999939 2788.695801,39.999939 
	C2810.527100,39.999939 2832.358398,39.999939 2854.189697,39.999939 
	C2875.978516,39.999939 2897.767578,39.999939 2919.772461,39.999939 
	C2919.772461,58.447914 2919.772461,76.515091 2919.772461,95.000053 
	C2917.800049,95.000053 2916.011719,95.000053 2914.223145,95.000053 
	C2814.732422,95.000061 2715.241699,94.966797 2615.750977,95.065918 
	C2608.142822,95.073502 2601.202881,97.577797 2594.139404,100.908661 
	C2583.863037,105.754662 2576.729736,113.128868 2571.098877,122.471535 
	C2569.618164,124.928085 2568.098633,127.538368 2567.492188,130.276352 
	C2567.145020,131.843750 2568.599854,133.810318 2568.305176,136.134506 
	C2567.630127,135.583450 2566.955078,135.032379 2566.415283,134.591843 
	C2562.160889,145.183121 2563.833496,156.022552 2567.375244,166.387329 
	C2569.446289,172.447922 2573.248291,178.083023 2577.069092,183.328613 
	C2580.291504,187.752487 2584.200684,192.222504 2591.566895,189.502029 
	C2591.413574,190.057587 2591.260498,190.613144 2591.107422,191.168716 
	C2590.151611,191.620361 2589.196045,192.072006 2587.268311,192.983002 
	C2590.038818,193.946320 2591.849609,194.576035 2593.660645,195.205750 
	C2593.694336,195.002136 2593.728027,194.798508 2593.761719,194.594894 
	C2594.785889,195.524582 2595.670898,196.721863 2596.857422,197.339523 
	C2603.467041,200.779984 2610.593262,202.006958 2617.991455,202.005981 
	C2692.984619,201.996094 2767.977783,201.913849 2842.970459,202.089478 
	C2854.697754,202.116928 2866.190674,204.503296 2877.110596,209.032669 
	C2880.786133,210.557159 2884.319092,212.425491 2887.991943,213.957596 
	C2889.249023,214.482056 2890.734131,214.459671 2891.746582,214.626419 
	C2892.917969,215.783951 2893.881348,217.203018 2895.217773,217.984009 
	C2907.805420,225.341309 2917.617188,235.837601 2926.785645,246.813721 
	C2930.926758,251.771500 2933.204346,258.265137 2936.513916,263.953552 
	C2937.253418,265.224548 2938.776123,266.040100 2940.354736,267.432678 
	C2940.160645,267.528351 2939.220215,267.992096 2939.162842,268.020386 
	C2941.757568,278.939880 2945.559326,289.560425 2946.501465,300.428833 
	C2947.425293,311.083710 2946.091309,322.084869 2944.551025,332.761414 
	C2942.936035,343.958191 2938.235107,354.329285 2932.743164,364.655701 
z"/>
<path fill="#FFFFFF" opacity="1.000000" stroke="none" 
	d="
M89.004906,179.747299 
	C101.019508,195.058456 116.414360,202.168686 135.754608,202.101501 
	C208.580109,201.848450 281.407257,202.089188 354.233246,201.919128 
	C367.603882,201.887909 380.319916,204.666229 392.596405,209.348511 
	C408.796753,215.527359 422.908875,225.588196 434.193481,238.368057 
	C442.023224,247.235229 447.617523,258.397736 452.786194,269.215302 
	C459.937103,284.181671 461.774750,300.534485 460.901642,316.980835 
	C459.948273,334.938660 454.644836,351.719696 445.318817,367.191925 
	C436.765289,381.382507 425.359497,392.870728 411.556641,401.786957 
	C398.089142,410.486603 383.488739,416.702179 367.237427,417.962738 
	C360.005157,418.523712 352.740662,418.952789 345.490479,418.957092 
	C240.000580,419.019653 134.510635,419.000000 29.020697,419.000000 
	C27.209774,419.000000 25.398851,419.000000 23.294884,419.000000 
	C23.294884,400.695984 23.294884,382.626587 23.294884,364.000000 
	C24.996624,364.000000 26.764198,364.000000 28.531771,364.000000 
	C136.854767,364.000000 245.178070,364.111420 353.500214,363.808624 
	C363.159546,363.781647 372.568665,360.988373 381.133118,355.273682 
	C387.613922,350.949341 393.081085,345.852386 396.824951,339.435608 
	C407.090912,321.840363 409.688843,303.789551 398.770325,285.082489 
	C393.827271,276.613434 388.090576,269.287964 379.299744,264.797180 
	C374.530701,262.360901 369.604889,260.154572 364.563751,258.370178 
	C362.836548,257.758820 360.532104,258.680725 358.512024,259.023682 
	C356.743958,259.323822 355.004791,259.794464 352.876953,259.190155 
	C353.419098,258.536407 353.961243,257.882660 354.693146,257.000031 
	C353.541779,257.000031 352.582123,257.000031 351.622498,257.000031 
	C276.463013,257.000000 201.302979,257.148682 126.144379,256.889893 
	C108.538330,256.829254 92.275452,251.026047 76.900429,242.486954 
	C67.014702,236.996552 58.781780,229.456055 50.828888,221.740128 
	C46.049267,217.102905 42.784115,210.858597 39.055622,205.193527 
	C30.966951,192.903595 26.389118,179.101517 24.218916,164.799103 
	C21.163239,144.661072 23.392204,124.815018 32.070663,106.141891 
	C35.975864,97.739204 40.647846,89.683441 45.187103,81.590973 
	C46.451454,79.336914 48.484180,77.513855 49.623669,75.113358 
	C51.270809,74.062027 53.219196,73.294220 54.517567,71.914658 
	C65.171761,60.594173 78.223541,52.426315 92.295792,46.761375 
	C102.773643,42.543392 114.173004,39.928123 125.920006,39.940285 
	C226.410324,40.044353 326.900787,40.001656 427.391205,39.988197 
	C429.482880,39.987919 431.574554,39.812141 433.827118,39.711018 
	C433.827118,57.710857 433.827118,76.011513 433.827118,95.000046 
	C431.964661,95.000046 430.046570,95.000046 428.128448,95.000046 
	C328.971252,95.000046 229.813675,94.867355 130.657135,95.125626 
	C113.353500,95.170700 99.386353,102.855965 88.896530,117.027618 
	C82.286041,125.958321 78.453552,136.016800 78.320305,146.636398 
	C78.173409,158.344498 80.648529,170.028732 89.004906,179.747299 
z"/>
<path fill="#FFFFFF" opacity="1.000000" stroke="none" 
	d="
M1346.000000,115.000793 
	C1346.000000,109.668205 1345.756836,104.819344 1346.075073,100.007607 
	C1346.341309,95.981598 1344.896240,94.902496 1340.953369,94.919342 
	C1307.791138,95.060997 1274.627930,95.000023 1241.465088,95.000015 
	C1209.468750,95.000015 1177.462280,94.546669 1145.481567,95.254883 
	C1134.812988,95.491142 1123.864624,96.654182 1113.732910,101.416695 
	C1104.758423,105.635208 1095.413818,109.060776 1086.319214,113.034584 
	C1084.642944,113.767052 1083.380005,115.445694 1081.554932,117.004822 
	C1080.319580,117.518021 1078.098022,118.035149 1076.342896,119.234711 
	C1063.156372,128.247269 1052.270264,139.601440 1043.062134,152.593323 
	C1032.713013,167.195084 1025.581299,183.239777 1021.766174,200.735641 
	C1021.612976,201.438263 1021.899231,202.236694 1021.893311,202.181870 
	C1020.879700,207.334137 1018.017822,212.842194 1019.577393,216.426285 
	C1021.227112,220.217270 1018.621887,222.062912 1018.714539,224.878708 
	C1019.283936,242.191345 1019.000000,259.532043 1019.000000,276.863403 
	C1019.000000,322.191589 1019.000000,367.519775 1019.000000,412.847961 
	C1019.000000,414.671295 1019.000000,416.494598 1019.000000,419.005188 
	C1000.332458,419.005188 981.806763,419.005188 963.000061,419.005188 
	C963.000061,416.747559 963.000122,414.930664 963.000122,413.113770 
	C963.000122,353.120575 962.921997,293.127167 963.088501,233.134445 
	C963.112061,224.633179 964.386841,216.139008 964.920410,207.631378 
	C964.995361,206.435165 963.840210,205.190918 963.797424,203.950195 
	C963.752441,202.645935 964.307190,201.303497 964.693481,200.005646 
	C965.424133,197.551315 966.500061,195.166351 966.944153,192.665848 
	C968.947754,181.382324 972.131348,170.468582 976.458069,159.858292 
	C976.762512,159.111786 975.580688,157.759186 975.517395,157.621033 
	C976.984802,155.934052 978.386414,154.788696 979.194214,153.317368 
	C983.920349,144.708679 988.053101,135.738098 993.266785,127.443245 
	C998.686462,118.820877 1004.650635,110.441322 1011.228638,102.677452 
	C1016.675720,96.248337 1023.396790,90.904716 1029.468994,84.993584 
	C1030.573730,83.918243 1031.272095,82.425591 1032.287964,80.935196 
	C1033.346924,80.631859 1035.383545,80.545151 1036.793091,79.560600 
	C1043.636719,74.780457 1049.886841,68.990356 1057.134399,64.981354 
	C1073.127563,56.134785 1089.905884,49.017357 1107.881104,44.947529 
	C1122.792847,41.571320 1137.787476,39.893478 1153.104248,39.925137 
	C1231.428467,40.087032 1309.753052,40.008324 1388.077515,39.953011 
	C1390.086304,39.951591 1392.094604,39.251999 1394.382812,38.825939 
	C1395.962769,39.286537 1398.108032,39.911903 1400.677979,40.661114 
	C1400.677979,166.424927 1400.677979,292.762360 1400.677979,419.349243 
	C1382.148438,419.349243 1363.941040,419.349243 1346.000000,419.349243 
	C1346.000000,399.198425 1346.000000,379.186798 1346.000000,359.175171 
	C1346.000000,345.010101 1345.788940,330.840179 1346.116943,316.682709 
	C1346.228394,311.872955 1344.627808,310.901276 1340.130615,310.906982 
	C1243.308350,311.029388 1146.486084,311.000000 1049.663696,311.000000 
	C1048.005371,311.000000 1046.346924,311.000000 1044.344482,311.000000 
	C1044.344482,292.144928 1044.344482,273.411407 1044.344482,255.215225 
	C1045.727539,255.458511 1047.266479,255.965637 1048.805786,255.966217 
	C1146.294678,256.003693 1243.783691,255.973755 1341.272461,256.099274 
	C1345.037109,256.104126 1345.950439,254.581268 1345.993408,251.483353 
	C1346.011963,250.150421 1345.999756,248.817047 1345.999756,247.483871 
	C1346.000000,203.489441 1346.000000,159.495026 1346.000000,115.000793 
z"/>
<path fill="#FFFFFF" opacity="1.000000" stroke="none" 
	d="
M2022.017944,255.000000 
	C2022.018921,245.000916 2021.777832,235.494461 2022.067139,226.004166 
	C2022.880249,199.339142 2028.190430,173.669785 2039.876099,149.527008 
	C2043.588745,141.856857 2047.010254,133.968796 2051.530273,126.788223 
	C2056.006348,119.677505 2061.401367,113.071907 2066.947266,106.729088 
	C2072.226562,100.690971 2078.291504,95.345444 2083.842529,89.534386 
	C2084.950195,88.374924 2085.296631,86.488022 2085.881836,85.186188 
	C2087.575195,84.575310 2090.283203,84.443024 2091.067383,83.146942 
	C2092.935059,80.060097 2099.343018,80.115837 2097.677490,75.626907 
	C2100.181885,74.588722 2102.796387,74.003487 2104.827393,72.583740 
	C2120.784424,61.430225 2138.054688,52.895863 2156.796875,47.829918 
	C2168.145508,44.762432 2179.836670,42.674599 2191.506348,41.173710 
	C2200.812988,39.976688 2210.319092,40.053352 2219.737061,40.044006 
	C2298.062744,39.966297 2376.388672,39.999935 2454.714355,39.999935 
	C2456.539795,39.999935 2458.364990,39.999931 2460.330322,39.999931 
	C2460.330322,166.403946 2460.330322,292.657623 2460.330322,418.855530 
	C2442.061279,418.855530 2423.754150,418.855530 2404.862793,418.855530 
	C2404.862793,382.984009 2404.862793,347.254028 2404.862793,311.134552 
	C2304.334717,311.134552 2203.935791,311.134552 2103.218018,311.134552 
	C2103.133789,309.323273 2103.010010,307.882965 2103.008789,306.442535 
	C2102.994873,290.777374 2103.051514,275.111938 2102.954834,259.447357 
	C2102.936523,256.471527 2103.288818,254.695923 2106.891357,255.941406 
	C2107.933594,256.301788 2109.205566,255.999802 2110.372070,255.999802 
	C2206.362793,255.999954 2302.353516,256.000031 2398.344238,255.999786 
	C2404.999512,255.999771 2404.999756,255.998688 2404.999756,249.106613 
	C2405.000000,199.778046 2405.000000,150.449493 2405.000000,101.120934 
	C2405.000000,99.298248 2405.000000,97.475571 2405.000000,95.000069 
	C2403.283203,95.000069 2401.696289,95.000069 2400.109375,95.000069 
	C2334.948975,95.000069 2269.787109,94.779877 2204.629639,95.226738 
	C2194.321289,95.297432 2184.012695,98.267738 2173.759766,100.194122 
	C2172.323730,100.463951 2171.208252,102.439987 2170.142090,103.440704 
	C2169.024414,103.243225 2167.592285,102.500107 2166.605225,102.888405 
	C2148.323486,110.079460 2131.533203,119.643517 2117.638428,133.828415 
	C2104.428223,147.314560 2093.909424,162.567093 2087.010498,180.181274 
	C2081.790771,193.508011 2078.012207,207.151154 2077.952881,221.665176 
	C2077.697754,283.916046 2077.314453,346.166351 2077.068359,408.417236 
	C2077.061523,410.166168 2078.567871,411.950165 2078.461182,413.661163 
	C2078.360352,415.277466 2077.061279,416.818970 2075.891846,419.203857 
	C2058.891357,419.203857 2041.037842,419.203857 2022.017944,419.203857 
	C2022.017944,364.846558 2022.017944,310.173279 2022.017944,255.000000 
z"/>
<path fill="#FFFFFF" opacity="1.000000" stroke="none" 
	d="
M740.000000,257.000000 
	C687.437561,257.000000 635.375122,257.000000 582.852783,257.000000 
	C582.852783,238.999023 582.852783,220.451355 582.852783,201.717560 
	C670.617310,201.717560 758.588562,201.717560 846.946167,201.717560 
	C846.946167,147.919113 846.946167,94.189079 846.946167,40.230324 
	C865.400391,40.230324 883.468994,40.230324 901.769165,40.230324 
	C901.769165,166.380905 901.769165,292.430115 901.769165,418.739746 
	C883.660522,418.739746 865.591614,418.739746 847.154053,418.739746 
	C847.154053,364.984558 847.154053,311.238800 847.154053,257.000000 
	C811.359070,257.000000 775.929504,257.000000 740.000000,257.000000 
z"/>
<path fill="#FFFFFF" opacity="1.000000" stroke="none" 
	d="
M557.000000,325.000000 
	C557.000000,356.464691 557.000000,387.429382 557.000000,418.696777 
	C538.714111,418.696777 520.649536,418.696777 502.291718,418.696777 
	C502.291718,292.760681 502.291718,166.730728 502.291718,40.350327 
	C520.423340,40.350327 538.754639,40.350327 557.000000,40.350327 
	C557.000000,135.258865 557.000000,229.879425 557.000000,325.000000 
z"/>
<path fill="#FFFFFF" opacity="1.000000" stroke="none" 
	d="
M1198.034790,585.582703 
	C1197.755249,571.838074 1198.145142,558.760864 1202.864990,545.959595 
	C1211.174316,523.422485 1227.171387,509.723816 1249.786621,503.169525 
	C1252.878540,502.273407 1256.256470,502.047852 1259.502441,502.045746 
	C1348.307373,501.987946 1437.112183,501.999603 1525.917114,501.999664 
	C1526.735474,501.999664 1527.553711,501.999664 1528.686035,501.999664 
	C1528.686035,509.222748 1528.686035,516.293579 1528.686035,523.763672 
	C1504.406128,523.763672 1480.004272,523.763672 1455.226074,523.763672 
	C1455.226074,565.223816 1455.226074,606.292114 1455.226074,647.679932 
	C1448.122192,647.679932 1441.381348,647.679932 1434.253906,647.679932 
	C1434.253906,606.783081 1434.253906,565.717651 1434.253906,523.977356 
	C1432.297485,523.977356 1430.715088,523.977356 1429.132690,523.977356 
	C1407.639526,523.977600 1386.146362,523.977966 1364.653198,523.978027 
	C1331.176636,523.978027 1297.699585,524.106628 1264.223877,523.932190 
	C1242.211182,523.817444 1227.437866,538.764587 1222.175537,557.238220 
	C1218.364746,570.617065 1218.627197,584.239502 1223.959229,597.499268 
	C1229.784668,611.985413 1239.529175,622.015381 1255.070679,625.556519 
	C1258.871948,626.422668 1262.842896,626.923401 1266.738281,626.938232 
	C1296.228394,627.050293 1325.719238,627.003784 1355.209839,626.987122 
	C1356.668091,626.986267 1358.126465,626.803955 1359.769287,626.693848 
	C1359.769287,633.589722 1359.769287,640.871277 1359.769287,648.275146 
	C1357.845215,648.185852 1355.849243,648.013550 1353.853271,648.012451 
	C1322.863159,647.995361 1291.872681,648.078552 1260.882935,647.967468 
	C1245.408203,647.912048 1232.276978,641.974670 1220.958862,631.523499 
	C1211.518188,622.806030 1204.774536,612.536255 1201.562256,600.041199 
	C1200.364502,595.382690 1199.220337,590.710388 1198.034790,585.582703 
z"/>
<path fill="#FFFFFF" opacity="1.000000" stroke="none" 
	d="
M1823.526611,625.821045 
	C1851.139771,626.479553 1878.338867,626.982727 1905.773926,627.490295 
	C1905.773926,613.256287 1905.773926,599.854980 1905.773926,586.289062 
	C1876.463501,586.289062 1847.269775,586.289062 1817.834229,586.289062 
	C1817.834229,579.200989 1817.834229,571.886658 1817.834229,564.261597 
	C1819.346558,564.163574 1820.453735,564.029602 1821.560791,564.029236 
	C1855.380737,564.018372 1889.200928,564.059753 1923.020630,563.961975 
	C1926.505737,563.951904 1928.085083,564.638000 1928.061035,568.610657 
	C1927.903076,594.599426 1927.980103,620.589661 1927.971436,646.579407 
	C1927.971191,647.229858 1927.869019,647.880310 1927.834351,648.293640 
	C1925.773682,648.190979 1923.864014,648.014038 1921.954346,648.012939 
	C1891.133179,647.995667 1860.311523,648.098755 1829.490967,647.961853 
	C1812.501587,647.886353 1798.471558,641.090820 1786.428711,629.114868 
	C1778.172852,620.904724 1773.078613,611.289307 1769.716064,600.377563 
	C1761.739014,574.491760 1764.986206,549.696289 1780.366699,527.928589 
	C1792.261353,511.094238 1809.892090,501.942322 1831.347656,501.983398 
	C1863.327759,502.044617 1895.308105,501.999298 1927.635254,501.999298 
	C1927.635254,509.182556 1927.635254,516.254761 1927.635254,523.983276 
	C1926.111206,523.983276 1924.357788,523.983398 1922.604492,523.983276 
	C1892.449707,523.981445 1862.293335,524.172363 1832.140869,523.911926 
	C1811.032959,523.729675 1795.413452,538.654297 1790.124634,557.302490 
	C1786.543213,569.930786 1786.595947,582.876160 1791.062256,595.365723 
	C1796.571533,610.772217 1806.557617,621.778625 1823.526611,625.821045 
z"/>
<path fill="#FFFFFF" opacity="1.000000" stroke="none" 
	d="
M923.000000,523.978394 
	C898.838074,523.984375 875.176086,523.989624 851.514160,524.004089 
	C851.200378,524.004272 850.886719,524.120789 850.150940,524.266785 
	C850.150940,565.591980 850.150940,606.995789 850.150940,648.232178 
	C842.694702,648.232178 835.661926,648.232178 828.020020,648.232178 
	C828.020020,599.341736 828.020020,550.839600 828.020020,501.999237 
	C829.218384,501.999237 831.029602,501.999237 832.840881,501.999237 
	C869.667114,501.999237 906.493591,502.091400 943.319397,501.962189 
	C963.129944,501.892700 978.299744,510.193115 988.925293,526.694946 
	C997.392334,539.844482 999.364868,554.295837 994.804993,569.127502 
	C989.580322,586.121704 978.158936,597.745728 961.424133,603.991089 
	C959.090393,604.862000 956.706848,605.599426 954.214661,606.443237 
	C968.432861,620.153320 982.554993,633.770752 997.618103,648.295532 
	C987.036133,648.295532 977.632263,648.320740 968.229431,648.236755 
	C967.624329,648.231323 966.981628,647.431030 966.432373,646.919006 
	C956.732361,637.877686 947.037598,628.830750 937.359863,619.765686 
	C935.744263,618.252319 933.957947,616.831055 932.688599,615.054260 
	C927.636475,607.982239 920.864868,606.503052 912.453918,606.810791 
	C895.175476,607.442993 877.857727,607.000732 860.289429,607.000732 
	C860.289429,599.653931 860.289429,592.586365 860.289429,585.021118 
	C861.927490,585.021118 863.536804,585.021362 865.146118,585.021118 
	C891.807617,585.016418 918.469055,584.993652 945.130554,585.015137 
	C957.245789,585.024902 966.020813,578.998718 971.439880,568.839722 
	C976.971802,558.469421 976.592407,547.577881 969.940430,537.531006 
	C963.968811,528.511719 955.417175,523.930786 944.496277,523.973694 
	C937.497559,524.001221 930.498779,523.978577 923.000000,523.978394 
z"/>
<path fill="#FFFFFF" opacity="1.000000" stroke="none" 
	d="
M1011.999573,643.862976 
	C1011.999573,618.888611 1011.797607,594.397522 1012.070007,569.911682 
	C1012.254333,553.339417 1019.104919,539.241943 1029.700317,526.791382 
	C1037.736450,517.348206 1047.941895,510.781708 1059.129028,506.005432 
	C1064.617310,503.662231 1070.929565,502.232819 1076.887085,502.172089 
	C1111.357910,501.820557 1145.833984,502.000458 1180.642578,502.000458 
	C1180.642578,550.532837 1180.642578,598.920166 1180.642578,647.654175 
	C1173.801270,647.654175 1166.730591,647.654175 1158.999634,647.654175 
	C1158.999634,644.460571 1158.999756,641.038574 1158.999756,637.616516 
	C1158.999756,629.453552 1158.751465,621.280090 1159.095459,613.131653 
	C1159.292725,608.459106 1158.090210,606.849365 1153.078979,606.881897 
	C1118.429565,607.106934 1083.777832,607.000427 1049.126953,607.000427 
	C1047.304199,607.000427 1045.481445,607.000427 1043.330078,607.000427 
	C1043.330078,599.809937 1043.330078,592.736145 1043.330078,585.276611 
	C1081.523438,585.276611 1119.917847,585.276611 1158.655640,585.276611 
	C1158.655640,564.832764 1158.655640,544.764771 1158.655640,523.977173 
	C1157.176025,523.977173 1155.431519,523.977112 1153.687012,523.977112 
	C1131.530396,523.977234 1109.348511,524.643921 1087.223999,523.800293 
	C1062.383423,522.853088 1041.687744,539.166077 1035.147949,561.764160 
	C1033.854614,566.233154 1033.136597,571.022888 1033.093750,575.673401 
	C1032.886475,598.161316 1033.000244,620.652100 1033.000244,643.141907 
	C1033.000244,644.605896 1033.000366,646.069824 1033.000366,647.999023 
	C1026.578003,647.999023 1020.464294,647.880676 1014.358337,648.047119 
	C1011.123779,648.135254 1012.185730,645.952576 1011.999573,643.862976 
z"/>
<path fill="#FFFFFF" opacity="1.000000" stroke="none" 
	d="
M356.000031,501.999603 
	C369.322205,501.999603 382.152405,501.708893 394.964844,502.062775 
	C418.499878,502.712830 436.003998,513.929565 448.229553,533.711792 
	C457.666840,548.982300 460.450775,565.934326 458.843445,583.416138 
	C457.271271,600.515381 451.574921,616.218933 439.043335,628.771790 
	C426.324768,641.511902 411.311707,648.370667 393.032318,648.069214 
	C374.220428,647.758972 355.368958,648.628723 336.596283,647.716675 
	C328.100494,647.304016 318.511383,645.784302 311.575104,641.374329 
	C291.883118,628.854736 279.877472,610.796082 276.799744,586.835022 
	C274.197266,566.574280 278.036407,547.912048 288.330566,530.844604 
	C292.467072,523.986450 299.116028,518.230713 305.634430,513.317078 
	C315.916443,505.566345 328.039825,502.083954 341.012665,502.004364 
	C345.841614,501.974762 350.670929,501.999603 356.000031,501.999603 
M320.088928,530.391418 
	C319.146851,530.994812 318.004395,531.422424 317.295380,532.230347 
	C312.826782,537.322632 307.424316,541.941101 304.267273,547.765930 
	C297.909943,559.495422 296.662689,572.308899 298.901642,585.613342 
	C303.423492,612.483887 320.452850,626.282471 344.934235,626.854004 
	C362.652191,627.267517 380.404480,626.438477 398.135742,625.954834 
	C406.578491,625.724609 413.718658,621.904419 419.979614,616.523315 
	C428.216278,609.444092 433.608612,600.469849 435.567291,589.812256 
	C439.101990,570.578979 437.307617,552.640259 423.169342,537.274231 
	C415.032593,528.430908 405.425476,524.082825 393.704987,524.008728 
	C376.388794,523.899170 359.070312,524.097900 341.754974,523.934143 
	C334.051208,523.861389 327.122803,525.969727 320.088928,530.391418 
z"/>
<path fill="#FFFFFF" opacity="1.000000" stroke="none" 
	d="
M2279.000000,501.999573 
	C2292.265137,502.078125 2305.271240,500.614807 2317.354492,506.096313 
	C2323.182861,508.740295 2328.914795,511.910828 2334.051025,515.707764 
	C2348.888916,526.677307 2356.889648,542.400757 2359.648682,559.926636 
	C2363.712646,585.740784 2358.976807,609.971558 2339.904541,629.534302 
	C2328.144043,641.597168 2313.764648,648.051392 2296.692383,648.010620 
	C2277.859863,647.965698 2259.027588,647.979309 2240.195068,648.010010 
	C2231.934814,648.023438 2224.255615,645.866699 2216.816895,642.381714 
	C2194.327637,631.845459 2182.916748,613.371277 2179.038086,589.619568 
	C2176.382812,573.359131 2177.240723,557.230225 2184.134766,542.091858 
	C2191.116699,526.760986 2201.646240,514.587830 2217.631592,507.649414 
	C2226.772461,503.681824 2236.060791,501.702850 2246.002930,501.940765 
	C2256.829346,502.199799 2267.667236,501.999573 2279.000000,501.999573 
M2246.725342,626.999512 
	C2264.125732,626.670898 2281.543457,626.717529 2298.921143,625.903442 
	C2314.885498,625.155640 2325.764160,615.816101 2332.796387,602.285645 
	C2338.761475,590.807983 2340.607178,578.315125 2338.010498,565.392944 
	C2335.508789,552.941956 2331.248291,542.007751 2320.614502,533.422485 
	C2312.161377,526.598022 2303.406494,523.954163 2293.151123,523.971985 
	C2275.666992,524.002441 2258.183105,523.978027 2240.698975,524.025208 
	C2239.083740,524.029541 2237.424805,524.205872 2235.861572,524.600830 
	C2220.538574,528.472229 2209.203369,537.242859 2204.078125,552.447998 
	C2201.581543,559.855591 2199.541748,567.759583 2199.330811,575.494568 
	C2199.137207,582.585571 2200.885986,590.026123 2203.232422,596.809998 
	C2205.790527,604.205750 2210.064453,610.783081 2216.290771,616.212830 
	C2224.901367,623.721802 2235.058105,625.855896 2246.725342,626.999512 
z"/>
<path fill="#FFFFFF" opacity="1.000000" stroke="none" 
	d="
M2642.066895,648.000122 
	C2639.592041,648.000122 2637.608398,648.000122 2636.715332,648.000122 
	C2634.080566,636.949646 2632.546143,625.956238 2628.759033,615.803162 
	C2624.165771,603.488586 2617.248535,592.303772 2608.908691,581.790771 
	C2596.800537,566.527527 2581.934082,554.900330 2565.912598,544.358704 
	C2552.056641,535.241943 2536.794434,529.440308 2520.922852,525.057861 
	C2519.844971,524.760254 2518.613037,525.018982 2517.090576,525.018982 
	C2517.090576,566.207092 2517.090576,607.318176 2517.090576,648.310547 
	C2509.593506,648.310547 2502.459717,648.310547 2495.164551,648.310547 
	C2495.164551,599.926941 2495.164551,551.296448 2495.164551,502.313141 
	C2507.595947,501.241302 2519.841309,502.262115 2531.994629,505.468445 
	C2549.953125,510.206329 2566.339600,518.371216 2581.745361,528.443726 
	C2601.729004,541.509460 2619.256348,557.306030 2632.787109,577.208435 
	C2633.038086,577.577820 2633.546387,577.772278 2634.581055,578.508240 
	C2634.581055,552.862549 2634.581055,527.741211 2634.581055,502.311127 
	C2642.232178,502.311127 2649.306641,502.311127 2656.692383,502.311127 
	C2656.692383,550.578064 2656.692383,598.980103 2656.692383,648.000122 
	C2652.077393,648.000122 2647.317627,648.000122 2642.066895,648.000122 
z"/>
<path fill="#FFFFFF" opacity="1.000000" stroke="none" 
	d="
M476.022644,591.000000 
	C476.022644,561.195312 476.022644,531.890564 476.022644,502.400696 
	C492.278625,500.588318 507.751556,503.160583 522.831909,508.416840 
	C541.246338,514.835205 558.051697,524.194580 573.627625,535.979431 
	C586.461243,545.689453 598.080811,556.528992 608.014221,569.178711 
	C610.905884,572.861084 613.772766,576.562927 616.708130,580.329163 
	C616.708130,554.580933 616.708130,528.618591 616.708130,502.328583 
	C624.193481,502.328583 631.264404,502.328583 638.291077,502.328583 
	C638.291077,550.585083 638.291077,598.940430 638.291077,647.992676 
	C631.518982,647.992676 625.095215,648.128784 618.690308,647.842224 
	C617.755676,647.800476 616.168152,645.763916 616.134399,644.613647 
	C615.419189,620.191223 604.996033,599.835266 589.917603,581.413025 
	C570.168396,557.284058 545.312012,540.250793 516.344360,529.149780 
	C510.677155,526.978027 504.544983,526.019531 498.148132,524.378540 
	C498.148132,565.850281 498.148132,606.621216 498.148132,647.695801 
	C490.756622,647.695801 483.686127,647.695801 476.022644,647.695801 
	C476.022644,629.019775 476.022644,610.259888 476.022644,591.000000 
z"/>
<path fill="#FFFFFF" opacity="1.000000" stroke="none" 
	d="
M1634.035156,508.977905 
	C1672.546387,522.845093 1702.817017,546.927185 1726.669678,580.093811 
	C1726.669678,553.850952 1726.669678,528.171448 1726.669678,502.246674 
	C1733.718872,502.246674 1741.101685,502.246674 1748.731689,502.246674 
	C1748.731689,550.715881 1748.731689,599.103882 1748.731689,648.108765 
	C1741.635864,648.108765 1734.580078,648.108765 1728.242676,648.108765 
	C1725.903564,638.053772 1723.966187,627.422913 1720.899780,617.128418 
	C1717.081543,604.309631 1709.600098,593.365967 1701.431763,582.861023 
	C1692.715454,571.651611 1682.511963,562.023071 1671.119141,553.670715 
	C1653.695679,540.896973 1635.151733,530.383545 1613.694092,525.778259 
	C1609.361328,524.848328 1607.906494,525.530579 1607.923584,530.209412 
	C1608.060913,567.693298 1608.000366,605.177917 1608.000366,642.662354 
	C1608.000366,644.291260 1608.000366,645.920105 1608.000366,647.772339 
	C1600.928833,647.772339 1594.192139,647.772339 1586.904663,647.772339 
	C1586.904663,599.282227 1586.904663,550.900085 1586.904663,502.259338 
	C1602.636353,500.831146 1618.409058,502.871582 1634.035156,508.977905 
z"/>
<path fill="#FFFFFF" opacity="1.000000" stroke="none" 
	d="
M2143.000000,648.000366 
	C2119.501465,648.000366 2096.501221,647.827393 2073.505615,648.090210 
	C2064.970703,648.187683 2057.157959,645.771545 2049.500732,642.720337 
	C2038.240601,638.233582 2029.386597,629.895874 2022.748413,620.442017 
	C2017.501709,612.969666 2013.365601,603.927551 2012.070435,594.366943 
	C2011.082642,587.074768 2009.948608,579.685669 2010.143555,572.373413 
	C2010.607422,554.966064 2015.746582,539.087891 2027.037598,525.366211 
	C2040.028687,509.578613 2056.695068,502.037384 2076.937256,502.009918 
	C2106.602051,501.969666 2136.266602,502.005127 2165.931396,501.986603 
	C2167.848145,501.985413 2169.764893,501.798431 2172.137695,501.673950 
	C2172.137695,508.869781 2172.137695,516.291626 2172.137695,523.978027 
	C2151.588623,523.978027 2131.605957,523.975647 2111.623047,523.978821 
	C2099.290527,523.980774 2086.957275,523.899109 2074.625977,524.028320 
	C2065.674561,524.122192 2058.242188,527.579773 2050.828613,532.878479 
	C2029.252197,548.299500 2026.821533,584.857056 2040.246338,606.368286 
	C2047.245850,617.583923 2057.653809,625.380371 2071.231445,625.824524 
	C2099.297119,626.742798 2127.395752,626.676331 2155.480713,626.991089 
	C2160.792725,627.050598 2166.105713,626.999634 2171.708252,626.999634 
	C2171.708252,633.939636 2171.708252,640.680237 2171.708252,648.000366 
	C2162.363770,648.000366 2152.931885,648.000366 2143.000000,648.000366 
z"/>
<path fill="#FFFFFF" opacity="1.000000" stroke="none" 
	d="
M2701.824707,514.701294 
	C2710.817627,508.430176 2720.189697,503.958832 2730.841553,502.602966 
	C2732.623779,502.376099 2734.411865,502.027130 2736.197754,502.025085 
	C2767.347900,501.989624 2798.498291,501.999512 2829.648438,501.999512 
	C2831.601074,501.999512 2833.553467,501.999512 2836.146973,501.999512 
	C2836.146973,508.749908 2836.146973,516.167847 2836.146973,523.977966 
	C2833.865723,523.977966 2831.892578,523.977539 2829.919189,523.978027 
	C2799.602051,523.984863 2769.282959,523.816528 2738.968506,524.102417 
	C2729.497314,524.191650 2721.400391,527.575867 2713.723145,534.124512 
	C2699.278320,546.445862 2695.349609,562.320007 2696.252686,579.668701 
	C2697.011475,594.247314 2702.139648,607.808716 2714.128662,617.342529 
	C2720.206787,622.175720 2727.352051,625.776917 2735.307129,625.914062 
	C2766.872559,626.458374 2798.444092,626.667664 2830.013184,626.997070 
	C2831.822021,627.015930 2833.631104,626.999573 2835.719238,626.999573 
	C2835.719238,633.960632 2835.719238,640.698242 2835.719238,648.000427 
	C2834.178223,648.000427 2832.579346,648.000427 2830.980225,648.000427 
	C2798.830566,648.000427 2766.680908,648.037109 2734.531250,647.977356 
	C2725.293945,647.960144 2717.041260,644.344727 2708.913330,640.422302 
	C2700.012939,636.127075 2692.905762,629.110901 2687.662354,621.433716 
	C2682.202881,613.440002 2678.690186,603.636230 2676.312500,594.127258 
	C2672.420654,578.564575 2673.327637,562.838928 2678.834961,547.495239 
	C2683.486084,534.537598 2690.766846,523.553101 2701.824707,514.701294 
z"/>
<path fill="#FFFFFF" opacity="1.000000" stroke="none" 
	d="
M260.959229,523.977295 
	C232.310776,523.977478 204.144852,524.498047 176.009323,523.797485 
	C156.758499,523.318115 138.730637,537.761169 133.603806,554.814819 
	C128.654282,571.278687 128.802475,587.283569 136.947128,602.828003 
	C144.310181,616.880737 155.574921,625.533813 171.597168,625.904724 
	C203.491364,626.642944 235.401932,626.675720 267.306061,626.968140 
	C268.081238,626.975281 268.859863,626.608948 269.799377,626.376648 
	C269.799377,633.429016 269.799377,640.519226 269.799377,648.000366 
	C267.983002,648.000366 266.360992,648.000366 264.738983,648.000366 
	C234.753571,648.000366 204.764984,647.738159 174.783997,648.102173 
	C157.753525,648.308960 143.497162,642.168457 130.914352,631.340027 
	C122.670723,624.245789 117.630524,614.957886 114.007050,604.900696 
	C105.552872,581.435486 106.591095,558.386658 118.058670,536.148254 
	C124.954994,522.774597 135.580566,513.100586 149.400864,506.995178 
	C157.118301,503.585815 165.151825,501.954956 173.602615,501.973328 
	C204.254211,502.039917 234.906052,501.999573 265.557800,501.999573 
	C267.204895,501.999573 268.851959,501.999573 270.166504,501.999573 
	C270.166504,509.336700 270.166504,516.378906 270.166504,523.977295 
	C266.997314,523.977295 264.226013,523.977295 260.959229,523.977295 
z"/>
<path fill="#FFFFFF" opacity="1.000000" stroke="none" 
	d="
M698.000000,501.999481 
	C738.230713,501.999481 777.961365,501.999481 817.834717,501.999481 
	C817.834717,508.783508 817.834717,516.078979 817.834717,523.781372 
	C793.390137,523.781372 768.986328,523.781372 744.196045,523.781372 
	C744.196045,565.256409 744.196045,606.328857 744.196045,647.700317 
	C736.744751,647.700317 729.670898,647.700317 722.202393,647.700317 
	C722.202393,606.734192 722.202393,565.663330 722.202393,524.185242 
	C697.748474,524.185242 673.679321,524.185242 649.305786,524.185242 
	C649.305786,516.717224 649.305786,509.646545 649.305786,501.999481 
	C665.308838,501.999481 681.404419,501.999481 698.000000,501.999481 
z"/>
<path fill="#FEFEFE" opacity="1.000000" stroke="none" 
	d="
M2469.980469,506.150696 
	C2469.980225,553.591309 2469.980225,600.547913 2469.980225,647.752319 
	C2462.591309,647.752319 2455.523438,647.752319 2447.896484,647.752319 
	C2447.896484,599.271729 2447.896484,550.879333 2447.896484,502.000916 
	C2454.086914,502.000916 2460.847412,502.104462 2467.602783,501.955658 
	C2470.801025,501.885193 2469.811523,504.040771 2469.980469,506.150696 
z"/>
<path fill="#FFFEFE" opacity="1.000000" stroke="none" 
	d="
M1539.020630,533.000000 
	C1539.020630,522.527100 1539.020630,512.554138 1539.020630,502.290955 
	C1546.319458,502.290955 1553.387085,502.290955 1560.729736,502.290955 
	C1560.729736,550.641968 1560.729736,599.034363 1560.729736,647.714111 
	C1553.719604,647.714111 1546.650391,647.714111 1539.020630,647.714111 
	C1539.020630,609.669067 1539.020630,571.584534 1539.020630,533.000000 
z"/>
<path fill="#000000" opacity="1.000000" stroke="none" 
	d="
M320.361633,530.151123 
	C327.122803,525.969727 334.051208,523.861389 341.754974,523.934143 
	C359.070312,524.097900 376.388794,523.899170 393.704987,524.008728 
	C405.425476,524.082825 415.032593,528.430908 423.169342,537.274231 
	C437.307617,552.640259 439.101990,570.578979 435.567291,589.812256 
	C433.608612,600.469849 428.216278,609.444092 419.979614,616.523315 
	C413.718658,621.904419 406.578491,625.724609 398.135742,625.954834 
	C380.404480,626.438477 362.652191,627.267517 344.934235,626.854004 
	C320.452850,626.282471 303.423492,612.483887 298.901642,585.613342 
	C296.662689,572.308899 297.909943,559.495422 304.267273,547.765930 
	C307.424316,541.941101 312.826782,537.322632 317.295380,532.230347 
	C318.004395,531.422424 319.146851,530.994812 320.361633,530.151123 
z"/>
<path fill="#000000" opacity="1.000000" stroke="none" 
	d="
M2246.250977,626.999512 
	C2235.058105,625.855896 2224.901367,623.721802 2216.290771,616.212830 
	C2210.064453,610.783081 2205.790527,604.205750 2203.232422,596.809998 
	C2200.885986,590.026123 2199.137207,582.585571 2199.330811,575.494568 
	C2199.541748,567.759583 2201.581543,559.855591 2204.078125,552.447998 
	C2209.203369,537.242859 2220.538574,528.472229 2235.861572,524.600830 
	C2237.424805,524.205872 2239.083740,524.029541 2240.698975,524.025208 
	C2258.183105,523.978027 2275.666992,524.002441 2293.151123,523.971985 
	C2303.406494,523.954163 2312.161377,526.598022 2320.614502,533.422485 
	C2331.248291,542.007751 2335.508789,552.941956 2338.010498,565.392944 
	C2340.607178,578.315125 2338.761475,590.807983 2332.796387,602.285645 
	C2325.764160,615.816101 2314.885498,625.155640 2298.921143,625.903442 
	C2281.543457,626.717529 2264.125732,626.670898 2246.250977,626.999512 
z"/>
</svg>